<?xml version="1.0" encoding="utf-8"?>
<!-- Generator: Adobe Illustrator 19.0.0, SVG Export Plug-In . SVG Version: 6.00 Build 0)  -->
<svg version="1.1" id="Layer_1" xmlns="http://www.w3.org/2000/svg" xmlns:xlink="http://www.w3.org/1999/xlink" x="0px" y="0px"
	 viewBox="0 0 1865.2 850.4" style="enable-background:new 0 0 1865.2 850.4;" xml:space="preserve">
<style type="text/css">
	.st0{fill:#FF7D41;}
	.st1{fill:#5A5A5A;}
</style>
<g>
	<path id="XMLID_69_" class="st0" d="M320.4,505.7c59.8-1.9,107.2-49.5,107.9-108.6v-50.8h65.8v56.2
		c-1.3,91.4-80.7,163.5-173.8,165.6v0c-94.6-0.6-174.6-73.2-175.9-165.6v-101c-0.1-10.3,6.6-17,16.7-16.9l267.1,0v61.7l-209.4,0.1
		c-5.4,0-8.6,3.3-8.6,8.6v41.2C211,456,259.3,505.1,320.4,505.7L320.4,505.7z"/>
	<path id="XMLID_68_" class="st1" d="M567.5,529.2l19.2,6.9c12.5-27.9,22.8-54.2,32.1-80.7l-19.2-6.8
		C590.2,473.2,576.4,509.1,567.5,529.2z"/>
	<path id="XMLID_67_" class="st1" d="M616.2,356.2c-9.2-8.1-23.6-19.1-33.7-26.6l-12.4,16.2c8.4,6.8,24.9,19,33.5,26.4L616.2,356.2z
		"/>
	<path id="XMLID_66_" class="st1" d="M616.2,412.1c-11.8-10.1-25.6-21-38.8-30.7l-12.3,16.2c13.6,9.9,27.1,20.7,38.5,30.4
		L616.2,412.1z"/>
	<path id="XMLID_62_" class="st1" d="M718.2,313.1h-22.6V338h-73.6v18.1l33.3,0l9.1,25.9l-36.1,0v157.7h20.4V400.1h48v18.6h-36.7
		v18.1h36.7v18.6h-30.5v56.4h67.3c7.8,0,14.2-6.3,14.2-14.2v-42.3h-30.5v-18.6h34.3v-18.1h-34.3v-18.6h48v110.2
		c0,6.3-5.1,11.3-11.3,11.3h-24.1l5.3,18.1h22.2c15.6,0,28.3-12.7,28.3-28.3V382h-36.1l9.1-25.9h33.3V338h-73.6V313.1z M729.5,473.6
		v14.5c0,3.1-2.5,5.7-5.7,5.7h-39.6v-20.2H729.5z M736.3,356.1l-7.7,25.9h-43.3l-7.7-25.9H736.3z"/>
	<path id="XMLID_61_" class="st1" d="M822,529.2l19.2,6.9c12.5-27.9,22.8-54.2,32.1-80.7l-19.2-6.8
		C844.7,473.2,830.9,509.1,822,529.2z"/>
	<path id="XMLID_59_" class="st1" d="M870.7,356.2c-9.2-8.1-23.6-19.1-33.7-26.6l-12.4,16.2c8.4,6.8,24.9,19,33.5,26.4L870.7,356.2z
		"/>
	<path id="XMLID_58_" class="st1" d="M870.7,412.1c-11.8-10.1-25.6-21-38.8-30.7l-12.3,16.2c13.6,9.9,27.1,20.7,38.5,30.4
		L870.7,412.1z"/>
	<path id="XMLID_54_" class="st1" d="M972.7,313.1h-22.6V338h-73.6v18.1l33.3,0l9.1,25.9l-36.1,0v157.7h20.4V400.1h48v18.6h-36.7
		v18.1h36.7v18.6h-30.5v56.4H988c7.8,0,14.2-6.3,14.2-14.2v-42.3h-30.5v-18.6h34.3v-18.1h-34.3v-18.6h48v110.2
		c0,6.3-5.1,11.3-11.3,11.3h-24.1l5.3,18.1h22.2c15.6,0,28.3-12.7,28.3-28.3V382h-36.1l9.1-25.9h33.3V338h-73.6V313.1z M984,473.6
		v14.5c0,3.1-2.5,5.7-5.7,5.7h-39.6v-20.2H984z M990.7,356.1l-7.7,25.9h-43.3l-7.7-25.9H990.7z"/>
	<rect id="XMLID_53_" x="1138.1" y="313.2" class="st1" width="5" height="222.1"/>
	<g id="XMLID_3_">
		<path id="XMLID_50_" class="st1" d="M1248.3,332.3h189.5v13h-42.2V415h55.4v13h-55.4v110.6h-13.2V427.9h-75.5
			c-1.8,25.9-6.4,47.2-13.9,64c-9.1,20.3-24.4,36.2-45.8,47.7l-7.7-11.3c20.3-11.4,34.7-26.9,43.2-46.5c5.8-14.7,9.4-32.7,11-54
			h-58.8v-13h59.5c0.2-3.8,0.2-7.4,0.2-10.8v-59h-46.3V332.3z M1308,345.2v59c0,3.7-0.1,7.3-0.2,10.8h74.6v-69.8H1308z"/>
		<path id="XMLID_13_" class="st1" d="M1487.9,382.4c16.6,12,30.4,24.1,41.2,36.2l-9.1,9.1c-9.9-11.5-23.7-23.8-41.2-36.9
			L1487.9,382.4z M1520,447.6l11.5,4.6c-11,31.2-23.5,60.3-37.4,87.3l-12.5-5.5C1496.5,506,1509.3,477.2,1520,447.6z M1492.4,322.2
			c17.6,12.6,32.3,25.2,44.1,37.7l-9.1,9.1c-10.9-12-25.6-24.8-44.1-38.4L1492.4,322.2z M1584,365.8h36.2c3.7-8.3,6.2-17.1,7.7-26.4
			h-64.3v77.2c-1,51.2-10.2,92.3-27.8,123.3l-10.1-8.9c16-27.5,24.3-65.6,24.9-114.4v-89.2H1696v12h-55.6
			c-1.8,9.3-4.4,18.1-7.9,26.4h49.9v83.5h-42.2V522c0,11.8-5.8,17.7-17.3,17.7h-20.6l-2.6-12.2c6.6,0.6,12.9,1,18.9,1
			c6.1,0,9.1-3.1,9.1-9.4v-69.8H1584V365.8z M1591.7,468.7l12.5,2.4c-6.4,21.9-15.7,40.8-27.8,56.6l-10.8-7
			C1577.6,505.6,1586.3,488.2,1591.7,468.7z M1596,402.5h74.3v-25.9H1596V402.5z M1670.4,438.3v-25.2H1596v25.2H1670.4z
			 M1671.1,467.8c10.7,17.1,19.9,35.3,27.6,54.7l-11.3,5c-8.5-21.1-17.7-39.8-27.6-56.1L1671.1,467.8z"/>
	</g>
</g>
</svg>
